<svg width="320" height="96" viewBox="0 0 320 96" fill="none" xmlns="http://www.w3.org/2000/svg">
  <rect width="320" height="96" rx="20" fill="white"/>
  <path d="M34 28H56V34H41V44H54V50H41V62H56V68H34V28Z" fill="#0F172A"/>
  <path d="M69 28H84.5C93.4 28 99 32.9 99 41.2C99 49.5 93.4 54.5 84.5 54.5H76V68H69V28ZM84.2 48.3C89.3 48.3 91.9 45.8 91.9 41.2C91.9 36.6 89.3 34.2 84.2 34.2H76V48.3H84.2Z" fill="#0F172A"/>
  <path d="M108 28H115V62H132V68H108V28Z" fill="#0F172A"/>
  <path d="M144.3 28H152.2L166.5 68H159.2L155.9 58.4H140.5L137.2 68H130L144.3 28ZM154.1 52.6L148.3 35.7L142.4 52.6H154.1Z" fill="#0F172A"/>
  <path d="M176.7 34H164.6V28H195.9V34H183.8V68H176.7V34Z" fill="#0F172A"/>
  <path d="M204 28H229V34H211V44.5H226.7V50.4H211V68H204V28Z" fill="#0F172A"/>
  <path d="M239.9 28H247V68H239.9V28Z" fill="#0F172A"/>
  <path d="M264 28H271.8L286.1 68H278.8L275.6 58.4H260.2L256.9 68H249.7L264 28ZM273.8 52.6L268 35.7L262.2 52.6H273.8Z" fill="#0F172A"/>
  <path d="M292 28H306.5C315.1 28 320 31.9 320 39.1C320 44.2 317.3 47.6 312.8 49.1V49.3C316.4 49.8 318.3 52.6 319 56.6L320 61C320.6 64 321.2 66.8 322 68H314.7C314.1 67 313.7 64.6 313.1 61.6L312.4 57.6C311.5 52.6 309.3 51 304.9 51H299V68H292V28ZM305 45.3C310 45.3 313 43.2 313 39.5C313 35.7 310.2 33.7 305.4 33.7H299V45.3H305Z" fill="#0F172A"/>
</svg>
