<svg xmlns="http://www.w3.org/2000/svg" width="176" height="96" viewBox="0 0 176 96" fill="none"><path d="M95.3372 2.72266L61.5408 37.8595V2.72266H54.8926V61.5685H61.5408V46.6742L74.3228 33.4048L96.6777 61.5685H104.991L78.8723 28.6793L103.908 2.72266H95.3372Z" fill="white"></path><path d="M0 2.72266V61.5685H45.4546V55.516H6.64828V34.9212H37.019V28.8688H6.64828V8.77514H45.4139V2.72266H0Z" fill="white"></path><path d="M134.224 0C116.322 0 102.119 14.4068 102.119 32.1445C102.119 49.8823 116.322 64.2891 134.224 64.2891C152.124 64.2891 166.408 49.977 166.408 32.1445C166.408 14.3121 152.124 0 134.224 0ZM134.263 48.0679C125.476 48.0679 118.353 40.9457 118.353 32.158C118.353 23.3705 125.476 16.2483 134.263 16.2483C143.051 16.2483 150.174 23.3705 150.174 32.158C150.174 40.9457 143.051 48.0679 134.263 48.0679Z" fill="white"></path><path d="M6.74769 91V76.4545H11.8329C12.8462 76.4545 13.6819 76.6297 14.34 76.9801C14.9982 77.3258 15.4882 77.7921 15.8102 78.3793C16.1322 78.9616 16.2931 79.608 16.2931 80.3182C16.2931 80.9432 16.1819 81.4593 15.9593 81.8665C15.7415 82.2737 15.4527 82.5956 15.0929 82.8324C14.7377 83.0691 14.3519 83.2443 13.9352 83.358V83.5C14.3803 83.5284 14.8277 83.6847 15.2775 83.9688C15.7273 84.2528 16.1038 84.66 16.4068 85.1903C16.7098 85.7206 16.8613 86.3693 16.8613 87.1364C16.8613 87.8655 16.6956 88.5213 16.3642 89.1037C16.0327 89.6861 15.5095 90.1477 14.7946 90.4886C14.0796 90.8295 13.1492 91 12.0034 91H6.74769ZM8.50906 89.4375H12.0034C13.1539 89.4375 13.9707 89.215 14.4537 88.7699C14.9413 88.3201 15.1852 87.7756 15.1852 87.1364C15.1852 86.6439 15.0597 86.1894 14.8088 85.7727C14.5578 85.3513 14.2003 85.0152 13.7363 84.7642C13.2723 84.5085 12.7231 84.3807 12.0886 84.3807H8.50906V89.4375ZM8.50906 82.8466H11.7761C12.3064 82.8466 12.7846 82.7424 13.2108 82.5341C13.6416 82.3258 13.9825 82.0322 14.2335 81.6534C14.4892 81.2746 14.617 80.8295 14.617 80.3182C14.617 79.679 14.3945 79.1368 13.9494 78.6918C13.5043 78.242 12.7988 78.017 11.8329 78.017H8.50906V82.8466ZM24.1021 91.2273C23.051 91.2273 22.1442 90.9953 21.3819 90.5312C20.6243 90.0625 20.0396 89.4091 19.6277 88.571C19.2205 87.7282 19.0169 86.7481 19.0169 85.6307C19.0169 84.5133 19.2205 83.5284 19.6277 82.6761C20.0396 81.8191 20.6125 81.1515 21.3464 80.6733C22.085 80.1903 22.9468 79.9489 23.9316 79.9489C24.4998 79.9489 25.0609 80.0436 25.6149 80.233C26.1689 80.4223 26.6731 80.7301 27.1277 81.1562C27.5822 81.5777 27.9444 82.1364 28.2143 82.8324C28.4842 83.5284 28.6191 84.3854 28.6191 85.4034V86.1136H20.21V84.6648H26.9146C26.9146 84.0492 26.7915 83.5 26.5453 83.017C26.3038 82.5341 25.9582 82.1529 25.5083 81.8736C25.0633 81.5942 24.5377 81.4545 23.9316 81.4545C23.264 81.4545 22.6864 81.6203 22.1987 81.9517C21.7157 82.2784 21.344 82.7045 21.0836 83.2301C20.8232 83.7557 20.693 84.3191 20.693 84.9205V85.8864C20.693 86.7102 20.835 87.4086 21.1191 87.9815C21.408 88.5497 21.8081 88.983 22.3194 89.2812C22.8308 89.5748 23.425 89.7216 24.1021 89.7216C24.5424 89.7216 24.9402 89.66 25.2953 89.5369C25.6551 89.4091 25.9653 89.2197 26.2257 88.9688C26.4861 88.7131 26.6873 88.3958 26.8294 88.017L28.4487 88.4716C28.2782 89.0208 27.9918 89.5038 27.5893 89.9205C27.1868 90.3324 26.6897 90.6544 26.0978 90.8864C25.506 91.1136 24.8407 91.2273 24.1021 91.2273ZM31.9164 95.0909C31.6323 95.0909 31.379 95.0672 31.1564 95.0199C30.9339 94.9773 30.78 94.9347 30.6948 94.892L31.1209 93.4148C31.5281 93.5189 31.888 93.5568 32.2005 93.5284C32.513 93.5 32.79 93.3603 33.0314 93.1094C33.2776 92.8632 33.5025 92.4631 33.7061 91.9091L34.0186 91.0568L29.9846 80.0909H31.8027L34.8141 88.7841H34.9277L37.9391 80.0909H39.7573L35.1266 92.5909C34.9183 93.1544 34.6602 93.6207 34.3525 93.9901C34.0447 94.3641 33.6872 94.6411 33.28 94.821C32.8775 95.0009 32.423 95.0909 31.9164 95.0909ZM46.0108 91.2273C45.026 91.2273 44.1619 90.9929 43.4185 90.5241C42.6799 90.0554 42.1022 89.3996 41.6855 88.5568C41.2736 87.714 41.0676 86.7292 41.0676 85.6023C41.0676 84.4659 41.2736 83.474 41.6855 82.6264C42.1022 81.7789 42.6799 81.1207 43.4185 80.652C44.1619 80.1832 45.026 79.9489 46.0108 79.9489C46.9957 79.9489 47.8574 80.1832 48.5961 80.652C49.3394 81.1207 49.9171 81.7789 50.329 82.6264C50.7457 83.474 50.954 84.4659 50.954 85.6023C50.954 86.7292 50.7457 87.714 50.329 88.5568C49.9171 89.3996 49.3394 90.0554 48.5961 90.5241C47.8574 90.9929 46.9957 91.2273 46.0108 91.2273ZM46.0108 89.7216C46.7589 89.7216 47.3745 89.5298 47.8574 89.1463C48.3404 88.7628 48.6979 88.2585 48.9299 87.6335C49.1619 87.0085 49.2779 86.3314 49.2779 85.6023C49.2779 84.8731 49.1619 84.1937 48.9299 83.5639C48.6979 82.9342 48.3404 82.4252 47.8574 82.0369C47.3745 81.6487 46.7589 81.4545 46.0108 81.4545C45.2627 81.4545 44.6472 81.6487 44.1642 82.0369C43.6813 82.4252 43.3238 82.9342 43.0918 83.5639C42.8598 84.1937 42.7438 84.8731 42.7438 85.6023C42.7438 86.3314 42.8598 87.0085 43.0918 87.6335C43.3238 88.2585 43.6813 88.7628 44.1642 89.1463C44.6472 89.5298 45.2627 89.7216 46.0108 89.7216ZM55.1887 84.4375V91H53.5126V80.0909H55.1319V81.7955H55.274C55.5297 81.2415 55.9179 80.7964 56.4387 80.4602C56.9596 80.1193 57.6319 79.9489 58.4558 79.9489C59.1944 79.9489 59.8407 80.1004 60.3947 80.4034C60.9487 80.7017 61.3796 81.1562 61.6873 81.767C61.9951 82.3731 62.149 83.1402 62.149 84.0682V91H60.4728V84.1818C60.4728 83.3248 60.2503 82.6572 59.8052 82.179C59.3601 81.696 58.7493 81.4545 57.9728 81.4545C57.4378 81.4545 56.9596 81.5705 56.5382 81.8026C56.1215 82.0346 55.7924 82.3731 55.551 82.8182C55.3095 83.2633 55.1887 83.803 55.1887 84.4375ZM69.3311 91.2273C68.4221 91.2273 67.6195 90.9976 66.9235 90.5384C66.2275 90.0743 65.6829 89.4209 65.29 88.5781C64.897 87.7306 64.7005 86.7292 64.7005 85.5739C64.7005 84.428 64.897 83.4337 65.29 82.5909C65.6829 81.7481 66.2298 81.0971 66.9306 80.6378C67.6313 80.1785 68.441 79.9489 69.3596 79.9489C70.0698 79.9489 70.6309 80.0672 71.0428 80.304C71.4595 80.536 71.7767 80.8011 71.9945 81.0994C72.217 81.393 72.3899 81.6345 72.513 81.8239H72.655V76.4545H74.3311V91H72.7118V89.3239H72.513C72.3899 89.5227 72.2147 89.7737 71.9874 90.0767C71.7601 90.375 71.4358 90.6425 71.0144 90.8793C70.593 91.1113 70.0319 91.2273 69.3311 91.2273ZM69.5584 89.7216C70.2308 89.7216 70.7989 89.5464 71.263 89.196C71.727 88.8409 72.0797 88.3509 72.3212 87.7259C72.5627 87.0961 72.6834 86.3693 72.6834 85.5455C72.6834 84.7311 72.565 84.0185 72.3283 83.4077C72.0916 82.7921 71.7412 82.3139 71.2772 81.973C70.8132 81.6274 70.2402 81.4545 69.5584 81.4545C68.8482 81.4545 68.2563 81.6368 67.7828 82.0014C67.3141 82.3613 66.9614 82.8513 66.7246 83.4716C66.4926 84.0871 66.3766 84.7784 66.3766 85.5455C66.3766 86.322 66.495 87.0275 66.7317 87.6619C66.9732 88.2917 67.3283 88.7936 67.7971 89.1676C68.2705 89.5369 68.8577 89.7216 69.5584 89.7216ZM84.0826 91H82.236L87.5769 76.4545H89.3951L94.736 91H92.8894L88.5428 78.7557H88.4292L84.0826 91ZM84.7644 85.3182H92.2076V86.8807H84.7644V85.3182ZM101.206 91.2273C100.183 91.2273 99.3027 90.9858 98.5641 90.5028C97.8255 90.0199 97.2573 89.3546 96.8596 88.5071C96.4618 87.6596 96.263 86.6913 96.263 85.6023C96.263 84.4943 96.4666 83.5166 96.8738 82.669C97.2857 81.8168 97.8586 81.1515 98.5925 80.6733C99.3311 80.1903 100.193 79.9489 101.178 79.9489C101.945 79.9489 102.636 80.0909 103.252 80.375C103.867 80.6591 104.371 81.0568 104.764 81.5682C105.157 82.0795 105.401 82.6761 105.496 83.358H103.82C103.692 82.8608 103.408 82.4205 102.968 82.0369C102.532 81.6487 101.945 81.4545 101.206 81.4545C100.553 81.4545 99.9798 81.625 99.4874 81.9659C98.9997 82.3021 98.6185 82.7779 98.3439 83.3935C98.074 84.0043 97.9391 84.7216 97.9391 85.5455C97.9391 86.3883 98.0717 87.1222 98.3368 87.7472C98.6067 88.3722 98.9855 88.8575 99.4732 89.2031C99.9656 89.5488 100.543 89.7216 101.206 89.7216C101.642 89.7216 102.037 89.6458 102.392 89.4943C102.747 89.3428 103.048 89.125 103.294 88.8409C103.54 88.5568 103.716 88.2159 103.82 87.8182H105.496C105.401 88.4621 105.167 89.0421 104.793 89.5582C104.423 90.0696 103.933 90.4768 103.323 90.7798C102.717 91.0781 102.011 91.2273 101.206 91.2273ZM112.378 91.2273C111.355 91.2273 110.475 90.9858 109.736 90.5028C108.997 90.0199 108.429 89.3546 108.031 88.5071C107.634 87.6596 107.435 86.6913 107.435 85.6023C107.435 84.4943 107.638 83.5166 108.046 82.669C108.458 81.8168 109.03 81.1515 109.764 80.6733C110.503 80.1903 111.365 79.9489 112.35 79.9489C113.117 79.9489 113.808 80.0909 114.423 80.375C115.039 80.6591 115.543 81.0568 115.936 81.5682C116.329 82.0795 116.573 82.6761 116.668 83.358H114.992C114.864 82.8608 114.58 82.4205 114.139 82.0369C113.704 81.6487 113.117 81.4545 112.378 81.4545C111.725 81.4545 111.152 81.625 110.659 81.9659C110.172 82.3021 109.79 82.7779 109.516 83.3935C109.246 84.0043 109.111 84.7216 109.111 85.5455C109.111 86.3883 109.244 87.1222 109.509 87.7472C109.779 88.3722 110.157 88.8575 110.645 89.2031C111.137 89.5488 111.715 89.7216 112.378 89.7216C112.814 89.7216 113.209 89.6458 113.564 89.4943C113.919 89.3428 114.22 89.125 114.466 88.8409C114.712 88.5568 114.887 88.2159 114.992 87.8182H116.668C116.573 88.4621 116.339 89.0421 115.965 89.5582C115.595 90.0696 115.105 90.4768 114.494 90.7798C113.888 91.0781 113.183 91.2273 112.378 91.2273ZM125.993 86.5398V80.0909H127.669V91H125.993V89.1534H125.879C125.624 89.7074 125.226 90.1785 124.686 90.5668C124.146 90.9503 123.465 91.142 122.641 91.142C121.959 91.142 121.353 90.9929 120.823 90.6946C120.292 90.3916 119.876 89.937 119.573 89.331C119.27 88.7202 119.118 87.9508 119.118 87.0227V80.0909H120.794V86.9091C120.794 87.7045 121.017 88.339 121.462 88.8125C121.912 89.286 122.485 89.5227 123.181 89.5227C123.597 89.5227 124.021 89.4162 124.452 89.2031C124.887 88.9901 125.252 88.6634 125.546 88.223C125.844 87.7827 125.993 87.2216 125.993 86.5398ZM130.739 91V80.0909H132.358V81.7386H132.472C132.671 81.1989 133.031 80.7609 133.552 80.4247C134.073 80.0885 134.66 79.9205 135.313 79.9205C135.436 79.9205 135.59 79.9228 135.775 79.9276C135.959 79.9323 136.099 79.9394 136.194 79.9489V81.6534C136.137 81.6392 136.007 81.6179 135.803 81.5895C135.604 81.5563 135.394 81.5398 135.171 81.5398C134.641 81.5398 134.167 81.651 133.751 81.8736C133.339 82.0914 133.012 82.3944 132.77 82.7827C132.534 83.1662 132.415 83.6042 132.415 84.0966V91H130.739ZM141.391 91.2557C140.7 91.2557 140.072 91.1255 139.509 90.8651C138.945 90.5999 138.498 90.2188 138.166 89.7216C137.835 89.2197 137.669 88.6136 137.669 87.9034C137.669 87.2784 137.792 86.7718 138.039 86.3835C138.285 85.9905 138.614 85.6828 139.026 85.4602C139.438 85.2377 139.892 85.072 140.389 84.9631C140.891 84.8494 141.396 84.7595 141.902 84.6932C142.565 84.608 143.102 84.544 143.514 84.5014C143.931 84.4541 144.234 84.3759 144.423 84.267C144.618 84.1581 144.715 83.9687 144.715 83.6989V83.642C144.715 82.9413 144.523 82.3968 144.139 82.0085C143.761 81.6203 143.185 81.4261 142.414 81.4261C141.613 81.4261 140.986 81.6013 140.531 81.9517C140.077 82.3021 139.757 82.6761 139.573 83.0739L137.982 82.5057C138.266 81.8428 138.645 81.3267 139.118 80.9574C139.596 80.5833 140.117 80.3229 140.681 80.1761C141.249 80.0246 141.807 79.9489 142.357 79.9489C142.707 79.9489 143.11 79.9915 143.564 80.0767C144.023 80.1572 144.466 80.3253 144.892 80.581C145.323 80.8366 145.681 81.2225 145.965 81.7386C146.249 82.2547 146.391 82.946 146.391 83.8125V91H144.715V89.5227H144.629C144.516 89.7595 144.326 90.0128 144.061 90.2827C143.796 90.5526 143.443 90.7822 143.003 90.9716C142.563 91.161 142.025 91.2557 141.391 91.2557ZM141.646 89.75C142.309 89.75 142.868 89.6198 143.323 89.3594C143.782 89.099 144.128 88.7628 144.36 88.3509C144.596 87.9389 144.715 87.5057 144.715 87.0511V85.517C144.644 85.6023 144.487 85.6804 144.246 85.7514C144.009 85.8177 143.735 85.8769 143.422 85.929C143.114 85.9763 142.814 86.0189 142.52 86.0568C142.231 86.09 141.997 86.1184 141.817 86.142C141.381 86.1989 140.974 86.2912 140.595 86.419C140.221 86.5421 139.918 86.7292 139.686 86.9801C139.459 87.2263 139.345 87.5625 139.345 87.9886C139.345 88.571 139.561 89.0114 139.992 89.3097C140.427 89.6032 140.979 89.75 141.646 89.75ZM153.882 91.2273C152.859 91.2273 151.979 90.9858 151.24 90.5028C150.501 90.0199 149.933 89.3546 149.535 88.5071C149.138 87.6596 148.939 86.6913 148.939 85.6023C148.939 84.4943 149.142 83.5166 149.55 82.669C149.961 81.8168 150.534 81.1515 151.268 80.6733C152.007 80.1903 152.869 79.9489 153.854 79.9489C154.621 79.9489 155.312 80.0909 155.927 80.375C156.543 80.6591 157.047 81.0568 157.44 81.5682C157.833 82.0795 158.077 82.6761 158.172 83.358H156.496C156.368 82.8608 156.084 82.4205 155.643 82.0369C155.208 81.6487 154.621 81.4545 153.882 81.4545C153.229 81.4545 152.656 81.625 152.163 81.9659C151.675 82.3021 151.294 82.7779 151.02 83.3935C150.75 84.0043 150.615 84.7216 150.615 85.5455C150.615 86.3883 150.747 87.1222 151.013 87.7472C151.282 88.3722 151.661 88.8575 152.149 89.2031C152.641 89.5488 153.219 89.7216 153.882 89.7216C154.318 89.7216 154.713 89.6458 155.068 89.4943C155.423 89.3428 155.724 89.125 155.97 88.8409C156.216 88.5568 156.391 88.2159 156.496 87.8182H158.172C158.077 88.4621 157.843 89.0421 157.469 89.5582C157.099 90.0696 156.609 90.4768 155.998 90.7798C155.392 91.0781 154.687 91.2273 153.882 91.2273ZM161.702 95.0909C161.417 95.0909 161.164 95.0672 160.942 95.0199C160.719 94.9773 160.565 94.9347 160.48 94.892L160.906 93.4148C161.313 93.5189 161.673 93.5568 161.986 93.5284C162.298 93.5 162.575 93.3603 162.817 93.1094C163.063 92.8632 163.288 92.4631 163.491 91.9091L163.804 91.0568L159.77 80.0909H161.588L164.599 88.7841H164.713L167.724 80.0909H169.542L164.912 92.5909C164.703 93.1544 164.445 93.6207 164.138 93.9901C163.83 94.3641 163.472 94.6411 163.065 94.821C162.663 95.0009 162.208 95.0909 161.702 95.0909ZM172.293 91.1136C171.942 91.1136 171.642 90.9882 171.391 90.7372C171.14 90.4863 171.014 90.1856 171.014 89.8352C171.014 89.4848 171.14 89.1842 171.391 88.9332C171.642 88.6823 171.942 88.5568 172.293 88.5568C172.643 88.5568 172.944 88.6823 173.195 88.9332C173.446 89.1842 173.571 89.4848 173.571 89.8352C173.571 90.0672 173.512 90.2803 173.394 90.4744C173.28 90.6686 173.126 90.8248 172.932 90.9432C172.743 91.0568 172.53 91.1136 172.293 91.1136Z" fill="white"></path></svg>