<svg xmlns="http://www.w3.org/2000/svg" viewBox="0 0 283.46 63.63"><path d="M62.14 59.94v-7.38c0-2.04-1.64-3.69-3.67-3.69H16.52c-.95 0-1.72-.73-1.82-1.66l-.02-.02V3.69c0-2.04-1.64-3.69-3.67-3.69H3.67C1.64 0 0 1.65 0 3.69v45.76c.01 7.83 6.34 14.18 14.13 14.18h44.34c2.03 0 3.67-1.65 3.67-3.69m73.74-32.99V14.19C135.86 6.35 129.54 0 121.73 0H77.42c-2.03 0-3.68 1.65-3.68 3.69v11.07h45.6c.95 0 1.73.73 1.82 1.66l.02.02v8.25l-.02.02c-.09.93-.87 1.66-1.82 1.66h-45.6v33.57c0 2.04 1.65 3.69 3.68 3.69h7.35c2.03 0 3.68-1.65 3.68-3.69V41.13h33.29c7.81 0 14.13-6.35 14.15-14.18m26.35 32.99V3.69c0-2.04-1.65-3.69-3.69-3.69h-7.38c-2.04 0-3.69 1.65-3.69 3.69v56.24c0 2.04 1.65 3.69 3.69 3.69h7.38c2.04 0 3.69-1.65 3.69-3.69m47.38.21c0-.88-.52-1.67-.98-2.28l-19.6-23.11v-.04c-2.35-2.74-3.99-4.66-3.99-4.66l20.6-24.29c.46-.61.98-1.4.98-2.28 0-1.92-1.31-3.47-2.93-3.47h-11.86l-.04.02s-.05-.02-.08-.02c-.35 0-.67.18-.89.46h-.03l-23.14 27.06a3.8 3.8 0 00-.81 2.36c0 .77.25 1.45.62 2.03l25.21 29.93v-.05l1.11 1.33h.03c.22.29.54.48.89.48.03 0 .05-.02.08-.02l.04.02h11.87c1.62 0 2.93-1.55 2.93-3.47m73.83-49.07V3.69c0-2.04-1.64-3.69-3.67-3.69h-54.8c-2.03 0-3.67 1.65-3.67 3.69v11.07h58.47c2.03 0 3.67-1.65 3.67-3.69m0 26.58v-7.6c0-2.04-1.64-3.69-3.67-3.69h-58.47v33.57c0 2.04 1.64 3.69 3.67 3.69h7.34c2.03 0 3.67-1.65 3.67-3.69v-18.6h43.79c2.03 0 3.67-1.65 3.67-3.69" fill="#004e91"/></svg>