<svg width="320" height="96" viewBox="0 0 320 96" fill="none" xmlns="http://www.w3.org/2000/svg">
  <rect width="320" height="96" rx="20" fill="white"/>
  <rect x="28" y="20" width="56" height="56" rx="14" fill="#E1251B"/>
  <path d="M56 31L66 37V59L56 65L46 59V37L56 31Z" stroke="white" stroke-width="4"/>
  <path d="M56 20V10M56 86V76M84 48H94M18 48H28M76.8 27.2L83.6 20.4M28.4 75.6L35.2 68.8M76.8 68.8L83.6 75.6M28.4 20.4L35.2 27.2" stroke="#E1251B" stroke-width="4" stroke-linecap="round"/>
  <path d="M111 35H118.2L127.7 53.5L137 35H144.2V68H137.7V46.8L129.9 61.9H125.2L117.4 46.9V68H111V35Z" fill="#111827"/>
  <path d="M153 35H159.5V68H153V35Z" fill="#111827"/>
  <path d="M167.7 51.5C167.7 41.8 174.8 34.2 185.1 34.2C192.6 34.2 198.2 38.2 200 44.6H193C191.6 41 188.6 39 185.1 39C178.9 39 174.5 43.9 174.5 51.5C174.5 59.1 178.8 64 185.1 64C188.7 64 191.6 62 193 58.3H200C198.1 64.8 192.4 68.8 185.1 68.8C174.8 68.8 167.7 61.2 167.7 51.5Z" fill="#111827"/>
  <path d="M208.3 35H214.8V49H229.7V35H236.2V68H229.7V54.5H214.8V68H208.3V35Z" fill="#111827"/>
  <path d="M245.4 35H270.2V40.2H251.9V48.5H268.5V53.6H251.9V62.8H270.8V68H245.4V35Z" fill="#111827"/>
  <path d="M278.6 35H290.7C299 35 304 38.7 304 45.8C304 51 301.2 54.3 296.6 55.7L304.3 68H296.7L289.8 56.6H285.1V68H278.6V35ZM290.3 51.6C294.7 51.6 297.3 49.7 297.3 45.9C297.3 42 294.7 40.2 290.4 40.2H285.1V51.6H290.3Z" fill="#111827"/>
</svg>
