<svg width="320" height="96" viewBox="0 0 320 96" fill="none" xmlns="http://www.w3.org/2000/svg">
  <rect width="320" height="96" rx="20" fill="white"/>
  <circle cx="52" cy="48" r="24" fill="#0F766E"/>
  <circle cx="52" cy="48" r="11" fill="white"/>
  <path d="M52 12V24M52 72V84M16 48H28M76 48H88M27.4 23.4L35.9 31.9M68.1 64.1L76.6 72.6M76.6 23.4L68.1 31.9M35.9 64.1L27.4 72.6" stroke="#0F766E" stroke-width="4" stroke-linecap="round"/>
  <path d="M108 35H115.2L124.7 53.5L134 35H141.2V68H134.7V46.8L126.9 61.9H122.2L114.4 46.9V68H108V35Z" fill="#0F172A"/>
  <path d="M150 35H156.5V68H150V35Z" fill="#0F172A"/>
  <path d="M165 35H173L187.6 58.1V35H193.9V68H185.9L171.3 44.8V68H165V35Z" fill="#0F172A"/>
  <path d="M202.3 51.5C202.3 41.7 209.8 34.2 220 34.2C230.1 34.2 237.7 41.7 237.7 51.5C237.7 61.3 230.1 68.8 220 68.8C209.8 68.8 202.3 61.3 202.3 51.5ZM231 51.5C231 45 226.4 39.8 220 39.8C213.5 39.8 208.9 45 208.9 51.5C208.9 58 213.5 63.2 220 63.2C226.4 63.2 231 58 231 51.5Z" fill="#0F172A"/>
  <path d="M246.1 35H252.6V68H246.1V35Z" fill="#0F172A"/>
  <path d="M261 35H269L283.6 58.1V35H289.9V68H281.9L267.3 44.8V68H261V35Z" fill="#0F172A"/>
</svg>
