<svg xmlns:cc="http://creativecommons.org/ns#" xmlns:dc="http://purl.org/dc/elements/1.1/" xmlns:inkscape="http://www.inkscape.org/namespaces/inkscape" xmlns:rdf="http://www.w3.org/1999/02/22-rdf-syntax-ns#" xmlns:sodipodi="http://sodipodi.sourceforge.net/DTD/sodipodi-0.dtd" xmlns:svg="http://www.w3.org/2000/svg" xmlns="http://www.w3.org/2000/svg" xmlns:xlink="http://www.w3.org/1999/xlink" id="svg2" sodipodi:docname="Absolent_Part_of_Absolent_Horizontal_logo.eps" x="0px" y="0px" viewBox="0 0 708 142.6" style="enable-background:new 0 0 708 142.6;" xml:space="preserve"><style type="text/css">	.st0{fill:#231F20;}	.st1{fill:#0083ca;}	.st2{fill:#0083ca;}	.st3{fill:#FEFEFE;}</style><g id="g10" transform="matrix(1.3333333,0,0,-1.3333333,0,177.10667)" inkscape:groupmode="layer" inkscape:label="ink_ext_XXXXXX">	<g id="g12" transform="scale(0.1)">		<path id="path14" class="st0" d="M3685,995.8v-63.5h33.4c20.6,0,33.4,13.7,33.4,31.6c0,18.1-12.9,31.8-33.4,31.8H3685z    M3663.1,1015.9h57.2c31.4,0,53.6-22.8,53.6-52c0-29-22.2-52-54-52H3685v-43.1h-21.9V1015.9"></path>		<path id="path16" class="st0" d="M3875.3,908.5v9.1h-30.8c-20.1,0-28.2-6.2-28.2-16.9c0-9.5,6.4-15.1,20.9-15.1   C3852.7,885.6,3868.2,894.2,3875.3,908.5z M3794.1,898.9c0,22.4,18.5,36.1,48.9,36.1h32.2v1.8c0,14.5-8.9,24.6-28.2,24.6   c-14.3,0-25-6.9-31.2-17.5l-19.3,11.3c10.7,14.3,27.4,24.8,50.8,24.8c31.2,0,49-17.3,49-43.7v-67.3h-21V888   c-8.6-12.9-24.6-21.4-42.7-21.4C3807.4,866.6,3794.1,880.5,3794.1,898.9"></path>		<path id="path18" class="st0" d="M3925.2,977.6h21.4v-18.9c4.6,13.7,15.7,20.5,29.6,20.5c7.4,0,14.1-1.6,18.3-4.2l-8.4-21   c-3,2-7.5,3.2-13.7,3.2c-15.5,0-25.4-7.7-25.4-27.2v-61.2h-21.8L3925.2,977.6"></path>		<path id="path20" class="st0" d="M4009.2,977.6h21.6v23.6l21.3,13.9v-37.5h30.4v-19.5h-30.4v-53.6c0-11.9,5.8-17.1,14.3-17.1   c4.2,0,7.7,1.2,11.1,4.2l10.3-18.1c-6.2-4.2-13.9-6.7-23-6.7c-21.6,0-34,10.7-34,37.5v53.8h-21.6L4009.2,977.6"></path>		<path id="path22" class="st0" d="M4238.6,923.2c0,20.1-15.5,36.3-35.1,36.3c-19.7,0-34.8-16.1-34.8-36.3   c0-20.2,15.1-36.3,34.8-36.3C4223.2,887,4238.6,903.1,4238.6,923.2z M4146.9,923.2c0,31.4,25.2,56.6,56.6,56.6   c31.4,0,56.6-25.2,56.6-56.6c0-31.4-25.2-56.6-56.6-56.6C4172.1,866.6,4146.9,891.8,4146.9,923.2"></path>		<path id="path24" class="st0" d="M4272.8,977.6h18.9v6.2c0,33.6,9.9,43.7,43.5,43.7h5.2v-20.1h-3.6c-21,0-23.8-3.4-23.8-23.8v-6   h27.4v-19.5h-27.4v-89.2h-21.4v89.2h-18.9L4272.8,977.6"></path>		<path id="path26" class="st0" d="M4442.9,921.2h50.8l-25.4,67.3L4442.9,921.2z M4457.2,1015.9h22.2l56.8-147.1h-22.8l-11.9,31.4   h-66.5l-11.7-31.4h-23L4457.2,1015.9"></path>		<path id="path28" class="st0" d="M4647.7,923.4c0,20.5-15.5,36.7-35.5,36.7c-20.3,0-35.9-16.5-35.9-36.7   c0-20.3,15.5-36.9,35.9-36.9C4632.2,886.6,4647.7,902.9,4647.7,923.4z M4577.6,884.6v-15.7h-21.3V1028h21.5v-66.1   c8.3,11.1,22.6,17.9,37.3,17.9c28.8,0,54.4-22.4,54.4-56.6c0-34.1-26-56.6-54.2-56.6C4600.4,866.6,4585.9,873.3,4577.6,884.6"></path>		<path id="path30" class="st0" d="M4683.7,890.6l19.5,11.1c6.6-10.3,15.9-16.1,29.4-16.1c14.1,0,21.6,7,21.6,15.3   c0,9.5-13.3,11.7-27.6,14.7c-18.3,3.8-37.9,9.9-37.9,32c0,16.9,16.3,32.6,41.9,32.4c20.3,0,34.2-7.5,43.7-20.4l-18.7-10.7   c-5.4,8-13.3,12.9-25,12.9c-13.3,0-19.8-6.2-19.8-13.9c0-8.7,9.9-10.7,26.4-14.3c18.1-3.8,38.7-10.1,38.7-32.6   c0-15.9-14.3-34.7-44.3-34.4C4708.7,866.6,4692.9,874.9,4683.7,890.6"></path>		<path id="path32" class="st0" d="M4885,923.2c0,20.1-15.5,36.3-35,36.3c-19.8,0-34.9-16.1-34.9-36.3c0-20.2,15.1-36.3,34.9-36.3   C4869.7,887,4885,903.1,4885,923.2z M4793.4,923.2c0,31.4,25.2,56.6,56.6,56.6c31.4,0,56.6-25.2,56.6-56.6   c0-31.4-25.2-56.6-56.6-56.6C4818.5,866.6,4793.4,891.8,4793.4,923.2"></path>		<path id="path34" class="st0" d="M4931,1027.6h22V868.8h-22V1027.6"></path>		<path id="path36" class="st0" d="M4999.1,933.7h68.7c-3.2,17.1-15.9,27-33.9,27C5016.7,960.7,5003.4,949.4,4999.1,933.7z    M4977.4,922.8c0,32,24.6,57,56.6,57s55.8-23.4,55.8-55.6v-9.1h-91.5c3.2-17.5,16.9-29.2,36.9-29.2c15.3,0,25.4,7,31.8,17.5   l17.9-10.7c-10.5-15.7-26.2-26.2-49.8-26.2C5000.5,866.6,4977.4,891.2,4977.4,922.8"></path>		<path id="path38" class="st0" d="M5114.4,977.6h21.3v-15.1c7.5,10.5,19.6,17.3,34.7,17.3c27.6,0,44.7-18.1,44.7-47.9v-63.1h-22   v61.4c0,18.5-9.7,30.4-27.8,30.4c-16.5,0-29.2-12.3-29.2-31.8v-60h-21.8L5114.4,977.6"></path>		<path id="path40" class="st0" d="M5231.7,977.6h21.6v23.6l21.4,13.9v-37.5h30.4v-19.5h-30.4v-53.6c0-11.9,5.8-17.1,14.3-17.1   c4.2,0,7.7,1.2,11.1,4.2l10.3-18.1c-6.2-4.2-13.9-6.7-23-6.7c-21.6,0-34,10.7-34,37.5v53.8h-21.6V977.6"></path>		<path id="path42" class="st0" d="M3695.1,656.3h50.8l-25.4,67.3L3695.1,656.3z M3709.4,751h22.2l56.8-147.1h-22.8l-11.9,31.4   h-66.5l-11.7-31.4h-23L3709.4,751"></path>		<path id="path44" class="st0" d="M3808.5,712.7h21.9V603.9h-21.9V712.7z M3819.3,760.9c9.1,0,15.5-6.6,15.5-15.5   c0-8.9-6.5-15.5-15.5-15.5c-9.1,0-15.3,6.6-15.3,15.5C3804,754.2,3810.5,760.9,3819.3,760.9"></path>		<path id="path46" class="st0" d="M3860,712.7h21.4v-18.9c4.6,13.7,15.7,20.6,29.6,20.6c7.4,0,14.1-1.6,18.3-4.2l-8.4-21   c-3,2-7.5,3.2-13.7,3.2c-15.5,0-25.4-7.7-25.4-27.2v-61.2H3860L3860,712.7"></path>		<path id="path48" class="st0" d="M3992.9,677.5c0,42.9,33.4,75.6,75.5,75.6c27.8,0,52-14.9,65.1-37.1l-19.1-11.9   c-9.1,16.9-25.2,27.8-46,27.8c-30.6,0-53.6-24.2-53.6-54.4c0-29.8,23-54,53.4-54c22.8,0,39.1,12.5,47.5,30.2l19.7-10.5   c-12.7-24.6-37.1-41.3-67.1-41.3C4024.9,601.9,3992.9,635.8,3992.9,677.5"></path>		<path id="path50" class="st0" d="M4235.8,643.6v9.1H4205c-20.1,0-28.2-6.2-28.2-16.9c0-9.5,6.5-15.1,21-15.1   C4213.3,620.7,4228.8,629.3,4235.8,643.6L4235.8,643.6z M4154.6,634c0,22.4,18.5,36.1,49,36.1h32.2v1.8c0,14.5-8.9,24.6-28.2,24.6   c-14.3,0-25-6.8-31.2-17.5l-19.3,11.3c10.7,14.3,27.4,24.8,50.8,24.8c31.2,0,49-17.3,49-43.7v-67.3h-21v19.1   c-8.6-12.9-24.6-21.4-42.7-21.4C4167.9,601.7,4154.6,615.6,4154.6,634"></path>		<path id="path52" class="st0" d="M4285.7,712.7h21.4v-18.9c4.6,13.7,15.7,20.6,29.6,20.6c7.5,0,14.1-1.6,18.3-4.2l-8.4-21   c-3,2-7.5,3.2-13.7,3.2c-15.5,0-25.4-7.7-25.4-27.2v-61.2h-21.7L4285.7,712.7"></path>		<path id="path54" class="st0" d="M4386.4,668.8h68.7c-3.2,17.1-15.9,27-33.9,27C4403.9,695.8,4390.6,684.5,4386.4,668.8z    M4364.6,657.9c0,32,24.6,57,56.6,57s55.8-23.4,55.8-55.6v-9.1h-91.5c3.2-17.5,16.9-29.2,36.9-29.2c15.3,0,25.4,7,31.8,17.5   l17.9-10.7c-10.5-15.7-26.2-26.2-49.7-26.2C4387.8,601.7,4364.6,626.3,4364.6,657.9"></path>		<path id="path56" class="st0" d="M4544.6,677.5c0,41.9,32,75.6,76.2,75.6c27.6,0,48.9-12.3,62.9-31.6l-18.5-12.9   c-9.9,14.9-25,23.6-44.3,23.6c-31.9,0-54.2-24.8-54.2-54.6c0-30,22.8-54.4,54.4-54.4c27.8,0,45.3,16.9,50,40.7h-52.8v20.8h75.7   v-7.9c0-39.9-27.2-74.7-72.9-74.7C4576.7,601.9,4544.6,636.4,4544.6,677.5"></path>		<path id="path58" class="st0" d="M4720.3,712.7h21.4v-18.9c4.6,13.7,15.7,20.6,29.6,20.6c7.5,0,14.1-1.6,18.3-4.2l-8.4-21   c-3,2-7.5,3.2-13.7,3.2c-15.5,0-25.4-7.7-25.4-27.2v-61.2h-21.8V712.7"></path>		<path id="path60" class="st0" d="M4890.9,658.3c0,20.1-15.5,36.3-35,36.3c-19.8,0-34.9-16.1-34.9-36.3c0-20.1,15.1-36.3,34.9-36.3   C4875.6,622.1,4890.9,638.2,4890.9,658.3z M4799.2,658.3c0,31.4,25.2,56.6,56.6,56.6c31.4,0,56.6-25.2,56.6-56.6   c0-31.4-25.2-56.6-56.6-56.6C4824.4,601.7,4799.2,626.9,4799.2,658.3"></path>		<path id="path62" class="st0" d="M4936.1,649.9v62.9h22.2v-61.5c0-18.3,9.2-30.2,27.6-30.2c16.3,0,28.8,12.3,28.8,31.6v60h21.8   V603.9h-21.4v14.9c-7.5-10.5-19.6-17.1-34-17.1C4952.2,601.7,4936.1,619.9,4936.1,649.9"></path>		<path id="path64" class="st0" d="M5157.3,658.5c0,20.6-15.5,36.7-35.6,36.7c-20.6,0-35.9-16.5-35.9-36.7   c0-20.3,15.3-36.9,35.9-36.9C5141.8,621.7,5157.3,638,5157.3,658.5z M5087.2,618.4v-58H5066v152.3h21.1v-16.1   c8.3,11.3,22.6,18.3,37.5,18.3c28.8,0,54.4-22.4,54.4-56.6c0-34.1-26.2-56.6-54.4-56.6C5109.3,601.7,5095.2,607.6,5087.2,618.4"></path>		<path id="path66" class="st0" d="M3435,259h-12.6v1070.4h12.6V259"></path>	</g></g><path class="st1" d="M357.7,47.1c1-1.4,2-2.9,3.1-4.3c7-9,16.2-14.6,27.3-17.3c8.1-1.9,16.1-1.8,24,0.8c11,3.7,17.1,11.5,18.6,23 c0.8,6.1,0,12.2-1.2,18.2c-0.1,0.6-0.3,0.9-1.1,0.9c-5.3,0-10.7,0-16,0c-0.1,0-0.3-0.1-0.5-0.1c1-4.4,1.5-8.8,1.2-13.3 c-0.8-9.7-6.6-15.1-14.5-16c-6.1-0.7-11.6,0.8-16.7,4.1c-6.5,4.2-10.3,10.4-12.7,17.6c-0.8,2.2-1.6,4.5-2,6.8 c-0.1,0.6-0.3,0.8-0.9,0.8c-5.5,0-11,0-16.7,0c0.6-2.4,1.2-4.7,1.8-7c-0.6-0.2-0.7,0.3-0.9,0.5c-2.3,2.6-5,4.6-8.2,6.1 c-0.6,0.3-1.3,0.5-2,0.5c-19,0-38,0-56.9,0c-1,0-1.2-0.1-1-1.2c2-8.8,3.8-17.7,5.8-26.6c0.2-1.1,0-1.3-1.1-1.3 c-5.5,0-10.9,0.1-16.4,0c-1.2,0-1.6,0.4-1.8,1.5c-1.9,8.8-3.8,17.6-5.7,26.4c-0.2,0.8-0.5,1.1-1.3,1.1c-5.2,0-10.5,0-15.7,0 c-1,0-1.2-0.2-1-1.2c1.9-8.8,3.8-17.7,5.8-26.6c0.2-1,0.1-1.2-1-1.2c-7.8,0-15.6,0-23.4,0c-1.2,0-1.5-0.2-1.2-1.4 c1-4.2,1.9-8.4,2.7-12.7c0.2-1,0.6-1.3,1.6-1.3c35.6,0,71.2,0,106.7,0c3.9,0,7.7,0.8,11.3,2.4c6.1,2.7,9,7.7,9.8,14.1 C357.8,42.9,357.8,45,357.7,47.1z M314.7,62.2c3.3-0.1,7.2,0.1,11-0.2c6.1-0.4,10.6-3.6,12.3-9c0.5-1.6,1-3.3,1.1-4.9 c0.2-3.7-1.4-7-5.4-8.2c-1.5-0.4-3-0.7-4.6-0.7c-7.3,0-14.6,0-21.9-0.1c-0.9,0-1.2,0.3-1.3,1.1c-1.5,6.9-2.9,13.8-4.4,20.7 c-0.2,0.9,0,1.3,1,1.2C306.3,62.1,310.2,62.2,314.7,62.2z M351.4,61C351.4,61,351.4,60.9,351.4,61c-0.1,0-0.1,0-0.2,0 C351.3,61,351.4,61.1,351.4,61C351.4,61,351.4,61,351.4,61z"></path><path class="st2" d="M0,76.9c0.4-11.1,3.1-22.1,9-32.1c6.9-11.7,17-19,30.4-21.7c8.1-1.6,15.9-0.8,23.6,2c4.2,1.6,8.1,3.7,11.5,6.7 c6,5.5,8.9,12.5,9.5,20.5c0.5,6.4-0.7,12.5-2.1,18.7c-0.9,4-1.8,8.1-3.2,12c-1.9,5.2-4.9,9.7-8.6,13.9c-1.3,1.4-2.5,2.9-3.9,4.2 c-0.9,0.8-0.7,1.4,0,2.1c1.9,1.8,4,3.3,6.1,4.8c1.2,0.8,2.4,1.5,3.6,2.3c0.5,0.3,0.5,0.6,0.2,1c-2.6,3.2-5.2,6.3-7.8,9.5 c-0.6,0.7-0.9,0.4-1.4,0.1c-4.8-3.5-9.8-6.9-13.2-11.9c-0.5-0.7-0.9-0.3-1.3-0.1c-2.7,1.4-5.7,2.3-8.7,2.7c-2.5,0.4-5.1,0.2-7.6,0.2 c-5.1-0.1-10.1-0.8-14.9-2.7C9.7,104.6,2.9,96.5,0.7,84.5c-0.2-1.2-0.4-2.4-0.5-3.7C0.1,79.6,0.1,78.5,0,76.9z M19,74.5 c0,4.9,0.6,8.6,2.2,12.1c4,8.7,12.4,11.4,20.5,10.1c2.3-0.4,2.3-0.7,0.7-2.4c-2-2.1-4.4-3.7-6.9-5.1c-1-0.5-1.3-0.9-0.5-2 c1.9-2.7,3.7-5.4,5.4-8.2c0.5-0.8,0.8-1,1.7-0.3c3.9,3.1,7.9,6.2,11.8,9.3c0.9,0.7,1.2,0.6,1.7-0.3c0.8-1.2,1.6-2.4,2.4-3.7 c5.8-9.4,9-19.5,7.3-30.7c-1.7-11.3-11.3-18.1-22.4-15.9C35.3,39,29.9,43.4,26,49.8C21.3,57.7,19.4,66.5,19,74.5z"></path><path class="st2" d="M115,23.8c-1.3,5.9-2.5,11.7-3.7,17.6c-2.7,12.9-5.5,25.7-8.2,38.6c-0.3,1.5-0.9,3-1.1,4.5 c-0.7,5.2,1.4,9.1,6.3,10.9c6.5,2.4,13,2.2,19.4-0.6c5.2-2.3,7.9-6.6,9.2-11.9c1.8-7.6,3.3-15.2,4.9-22.8c2.5-11.7,5-23.4,7.5-35.1 c0.2-1,0.6-1.3,1.6-1.3c5.7,0.1,11.4,0,17.1,0c1,0,1.3,0.1,1.1,1.3c-3.5,16.1-6.9,32.2-10.3,48.3c-1.1,5.2-2,10.4-4,15.3 c-5.3,13.3-15,20.8-29.1,22.7c-10,1.4-19.7,0.2-28.9-3.6c-9-3.7-13.9-12.2-12.9-21.9c0.7-6.9,2.5-13.5,3.9-20.2 c2.8-13.5,5.8-27.1,8.6-40.6c0.2-0.9,0.5-1.3,1.5-1.2c5.3,0.1,10.7,0,16,0C114.2,23.7,114.5,23.7,115,23.8z"></path><path class="st2" d="M145.7,110.4c1.9-3.5,3.8-6.7,5.6-10c14.1-25.2,28.3-50.3,42.4-75.5c0.5-1,1.1-1.3,2.2-1.3c6.5,0.1,13,0,19.4,0 c1,0,1.5,0.2,1.6,1.3c2.3,14.2,4.6,28.3,7,42.5c0.2,1-0.1,1.1-1,1.1c-5.1,0-10.2,0-15.3,0c-0.9,0-1.1-0.3-1.2-1.1 c-1-7.4-2-14.8-2.9-22.2c0-0.3,0-0.6-0.4-0.9c-5.8,10.4-11.4,21-17.6,31.5c0.7,0,1.2,0,1.7,0c12.2,0,24.4,0,36.7,0 c1.1,0,1.5,0.2,1.7,1.4c1.7,10.8,3.4,21.5,5.2,32.2c0.1,0.7,0,0.9-0.7,0.9c-5.5,0-10.9,0-16.4,0c-1.1,0-0.9-0.7-1-1.2 c-0.9-5.4-1.7-10.8-2.5-16.2c-0.1-1-0.5-1.2-1.4-1.2c-10.4,0-20.8,0-31.2,0c-0.9,0-1.4,0.3-1.8,1.1c-3,5.6-6.1,11.1-9.1,16.7 c-0.3,0.5-0.5,1-1.3,1C158.8,110.4,152.4,110.4,145.7,110.4z"></path><path class="st1" d="M357.1,76c2.5,0,5,0,7.5,0c1,0,1.3,0.2,1.3,1.3c-0.2,3.6,0.3,7.2,1.9,10.5c2.7,5.8,7.6,8.6,13.8,9 c10.8,0.6,18.7-4.4,24.4-13.3c1.3-2,2.4-4.2,3.3-6.4c0.3-0.7,0.7-1,1.5-1c5.1,0,10.2,0,15.3,0c0.8,0,1.2,0,0.8,1 c-4.9,13.7-13.3,24.4-27,30.3c-11,4.7-22.3,5.9-33.8,1.7c-10.5-3.8-16.1-11.5-17.6-22.5c-0.4-3-0.3-6-0.3-9c0-1.2,0.3-1.7,1.6-1.6 C352.3,76.1,354.7,76,357.1,76z"></path><path class="st1" d="M354.7,110.5c-6.4,0-12.6,0-18.7,0c-0.6,0-0.9-0.3-1.1-0.8C328.9,99,323,88.3,317,77.6c-0.7-1.2-0.4-1.6,1-1.6 c5.5,0,11,0,16.6,0c0.7,0,1.1,0.2,1.3,0.8c0.3,0.7,0.6,1.4,1,1.9c2.8,3.6,4.7,7.7,6.5,11.8c2.8,6.3,6.3,12.2,10,18 C353.9,109.1,354.2,109.6,354.7,110.5z"></path><path class="st1" d="M252.4,76c2.6,0,5.2,0,7.8,0c0.8,0,1.1,0.1,0.9,1.1c-2.4,10.9-4.7,21.7-7.1,32.6c-0.1,0.7-0.4,0.9-1.1,0.9 c-5.4,0-10.8,0-16.1,0c-0.9,0-0.9-0.3-0.8-1c2.4-10.8,4.7-21.6,7-32.4c0.2-0.8,0.5-1,1.3-1C247,76,249.7,76,252.4,76z"></path><path class="st1" d="M282.6,110.5c-2.6,0-5.3,0-7.9,0c-0.8,0-1-0.2-0.8-1c2.3-10.8,4.6-21.5,6.9-32.3c0.2-1,0.5-1.2,1.5-1.2 c4.9,0.1,9.8,0,14.8,0c1.6,0,1.7,0.1,1.4,1.7c-1.8,8.4-3.5,16.7-5.3,25.1c-0.5,2.2-1,4.4-1.4,6.7c-0.1,0.8-0.4,1-1.2,1 C287.8,110.4,285.2,110.5,282.6,110.5z"></path><path class="st3" d="M327.6,60.7C327.6,60.7,327.6,60.7,327.6,60.7c-0.1,0.1-0.1,0.1-0.2,0C327.5,60.7,327.5,60.6,327.6,60.7 C327.5,60.6,327.6,60.7,327.6,60.7z"></path></svg>