<svg width="199" height="25" viewBox="0 0 199 25" fill="none" xmlns="http://www.w3.org/2000/svg">
<path d="M54.0969 15.5507C54.0969 15.9487 54.1969 16.3468 54.2969 16.6453C54.6969 17.6405 55.8969 17.939 56.7969 17.939C57.6969 17.939 58.9969 17.6405 58.9969 16.3468C58.9969 15.4512 58.1969 15.2521 55.2969 14.3565C52.5969 13.5604 49.3969 12.8638 49.3969 9.3808C49.3969 5.40024 52.7969 3.7085 56.3969 3.7085C60.1969 3.7085 63.4969 5.10169 63.5969 9.28128H58.5969C58.6969 8.58469 58.3969 8.18663 57.9969 7.88809C57.5969 7.58955 56.9969 7.49003 56.3969 7.49003C55.6969 7.49003 54.4969 7.68906 54.4969 8.6842C54.5969 9.87837 57.0969 10.1769 59.4969 10.8735C61.8969 11.5701 64.3969 12.6648 64.3969 15.8492C64.3969 20.3273 60.2969 21.8201 56.3969 21.8201C54.3969 21.8201 48.7969 21.1235 48.7969 15.6502H54.0969V15.5507Z" fill="white"/>
<path d="M66.7031 4.10693H81.0031V8.48555H72.0031V10.6749H80.2031V14.7549H72.0031V16.9443H81.3031V21.3229H66.7031V4.10693Z" fill="white"/>
<path d="M94.7969 10.4755C94.6969 9.87837 94.1969 7.9876 91.9969 7.9876C89.4969 7.9876 88.6969 10.3759 88.6969 12.7643C88.6969 15.0531 89.4969 17.541 91.9969 17.541C93.7969 17.541 94.4969 16.2473 94.7969 14.655H99.9969C99.9969 18.138 97.1969 21.8201 92.0969 21.8201C86.4969 21.8201 83.2969 17.8395 83.2969 12.7643C83.2969 7.291 86.6969 3.7085 92.0969 3.7085C96.8969 3.7085 99.4969 6.19635 99.8969 10.575H94.7969V10.4755Z" fill="white"/>
<path d="M118.198 14.6554C118.198 19.4321 115.598 21.7209 110.298 21.7209C104.998 21.7209 102.398 19.4321 102.398 14.6554V4.10693H107.698V13.4613C107.698 15.2525 107.698 17.4418 110.298 17.4418C112.798 17.4418 112.798 15.2525 112.798 13.4613V4.10693H118.098V14.6554H118.198Z" fill="white"/>
<path d="M121.297 4.10693H131.497C134.497 4.10693 137.097 5.79867 137.097 8.98312C137.097 10.7744 136.297 12.6651 134.497 13.2622C135.997 13.8593 136.897 15.4515 136.997 17.5413C137.097 18.3374 137.097 20.4272 137.597 21.2234H132.297C131.997 20.3277 131.897 19.4321 131.897 18.5365C131.797 16.9443 131.597 15.153 129.497 15.153H126.697V21.1238H121.397V4.10693H121.297ZM126.597 11.67H129.397C130.397 11.67 131.797 11.471 131.797 9.97826C131.797 8.88361 131.197 8.28653 129.197 8.28653H126.697V11.67H126.597Z" fill="white"/>
<path d="M140.203 4.10693H145.503V21.3229H140.203V4.10693Z" fill="white"/>
<path d="M152.3 8.48555H147.5V4.10693H162.5V8.48555H157.7V21.3229H152.4V8.48555H152.3Z" fill="white"/>
<path d="M171.902 3.7085C177.202 3.7085 180.702 7.49003 180.702 12.7643C180.702 18.0385 177.202 21.8201 171.902 21.8201C166.602 21.8201 163.102 18.0385 163.102 12.7643C163.202 7.49003 166.702 3.7085 171.902 3.7085ZM171.902 17.4414C173.302 17.4414 175.302 16.5458 175.302 12.6648C175.302 8.78371 173.202 7.88809 171.902 7.88809C170.502 7.88809 168.502 8.78371 168.502 12.6648C168.502 16.5458 170.602 17.4414 171.902 17.4414Z" fill="white"/>
<path d="M182.898 4.10693H188.398L193.398 13.3617V4.10693H198.398V21.3229H193.198L187.898 11.869V21.3229H182.898V4.10693Z" fill="white"/>
<path fill-rule="evenodd" clip-rule="evenodd" d="M21.6 0.922363C12.8 0.922363 5 5.10196 0 11.6699C1.2 13.4611 2.6 15.2524 4.2 16.7451C6.5 11.7694 10.8 7.98786 16.1 6.39564C13.8 8.08738 12.3 10.7743 12.3 13.7597C12.3 18.7354 16.4 22.8155 21.4 22.8155C26.4 22.8155 30.5 18.7354 30.5 13.7597C30.5 10.5752 28.9 7.78884 26.4 6.19661C30.7 7.29127 34.4 9.77912 36.9 13.1626C34.7 19.5315 28.7 24.1091 21.6 24.1091C21.5 24.1091 21.4 24.1091 21.4 24.1091V24.5072H21.7C31 24.5072 39.2 19.631 43.8 12.3665C38.8 5.4005 30.8 0.922363 21.6 0.922363ZM21.4 16.5461C19.8 16.5461 18.6 15.2524 18.6 13.7597C18.6 12.1675 19.9 10.9733 21.4 10.9733C23 10.9733 24.2 12.267 24.2 13.7597C24.2 15.2524 23 16.5461 21.4 16.5461Z" fill="white"/>
</svg>
