<svg width="320" height="96" viewBox="0 0 320 96" fill="none" xmlns="http://www.w3.org/2000/svg">
  <rect width="320" height="96" rx="20" fill="white"/>
  <rect x="24" y="20" width="56" height="56" rx="16" fill="#0F172A"/>
  <path d="M41 49.8C41 42.2 47.1 36 54.7 36C59.6 36 64.1 38.5 66.7 42.7L61.2 46C59.8 43.6 57.5 42.2 54.7 42.2C50.5 42.2 47.2 45.6 47.2 49.8C47.2 54 50.5 57.4 54.7 57.4C57.5 57.4 59.9 56 61.2 53.5L66.7 56.9C64 61 59.6 63.6 54.7 63.6C47.1 63.6 41 57.4 41 49.8Z" fill="#22D3EE"/>
  <path d="M100 36H123.9V42H106.8V48.9H121.6V54.7H106.8V61.9H124.4V68H100V36Z" fill="#0F172A"/>
  <path d="M130.4 36H144.9C152.5 36 157.1 39.5 157.1 46.1C157.1 51 154.4 54 149.9 55.2L157.8 68H150.3L143.2 56.2H137.2V68H130.4V36ZM144.6 50.7C148.6 50.7 150.9 49 150.9 45.8C150.9 42.5 148.6 40.9 144.7 40.9H137.2V50.7H144.6Z" fill="#0F172A"/>
  <path d="M160.8 52C160.8 42.3 168.1 35.3 178.2 35.3C186 35.3 191.5 39.2 193.1 45.4H186C184.8 42.5 181.8 40.9 178.2 40.9C171.9 40.9 167.7 45.4 167.7 52C167.7 58.6 171.9 63.1 178.2 63.1C181.8 63.1 184.8 61.5 186 58.6H193.1C191.5 64.8 186 68.7 178.2 68.7C168.1 68.7 160.8 61.7 160.8 52Z" fill="#0F172A"/>
  <path d="M201.2 41.9H191V36H218.1V41.9H207.9V68H201.2V41.9Z" fill="#0F172A"/>
  <path d="M222.2 36H229V68H222.2V36Z" fill="#0F172A"/>
  <path d="M235.4 52C235.4 42.3 242.8 35.3 252.9 35.3C263 35.3 270.4 42.3 270.4 52C270.4 61.7 263 68.7 252.9 68.7C242.8 68.7 235.4 61.7 235.4 52ZM263.4 52C263.4 45.7 259 40.9 252.9 40.9C246.7 40.9 242.4 45.7 242.4 52C242.4 58.3 246.7 63.1 252.9 63.1C259 63.1 263.4 58.3 263.4 52Z" fill="#0F172A"/>
  <path d="M276.6 36H283.9L297.8 57.7V36H304.4V68H297L283.1 46.2V68H276.6V36Z" fill="#0F172A"/>
</svg>
