<svg width="320" height="96" viewBox="0 0 320 96" fill="none" xmlns="http://www.w3.org/2000/svg">
  <rect width="320" height="96" rx="20" fill="white"/>
  <path d="M33 31H69V39H56V68H46V39H33V31Z" fill="#0F172A"/>
  <path d="M74 31H109V39H84V45H106V52H84V60H110V68H74V31Z" fill="#0F172A"/>
  <path d="M114 31H124V45L137 31H148L135 46L149 68H138L128 52L124 56V68H114V31Z" fill="#0F172A"/>
  <path d="M151 31H186V39H161V45H183V52H161V60H187V68H151V31Z" fill="#0F172A"/>
  <path d="M191 31H201V45L214 31H225L212 46L226 68H215L205 52L201 56V68H191V31Z" fill="#0F172A"/>
  <path d="M229 31H239V68H229V31Z" fill="#0F172A"/>
  <path d="M244 31H255L263 43L271 31H282L269 49L283 68H272L263 55L254 68H243L257 49L244 31Z" fill="#0F172A"/>
  <path d="M286 20L298 30L312 32L302 42L304 56L292 48L279 56L282 42L272 32L286 30L286 20Z" fill="#22D3EE"/>
</svg>
